<mxfile host="app.diagrams.net" modified="2020-12-03T16:23:30.232Z" agent="5.0 (Windows NT 10.0; Win64; x64) AppleWebKit/537.36 (KHTML, like Gecko) Chrome/86.0.4240.198 Safari/537.36 OPR/72.0.3815.400" etag="6l4OjFjhQrBOHXEQ09Iy" version="13.10.6" type="github">
  <diagram id="s7PEEPJIy9o_5e2Pum9e" name="Page-1">
    <mxGraphModel dx="918" dy="495" grid="1" gridSize="10" guides="1" tooltips="1" connect="1" arrows="1" fold="1" page="1" pageScale="1" pageWidth="827" pageHeight="1169" math="0" shadow="0">
      <root>
        <mxCell id="0" />
        <mxCell id="1" parent="0" />
        <mxCell id="jHbEwE0dVUc-BleYFiny-2" value="" style="edgeStyle=orthogonalEdgeStyle;rounded=0;orthogonalLoop=1;jettySize=auto;html=1;" edge="1" parent="1" source="q2Ii8qjP3S2E4ouvrTp5-34" target="jHbEwE0dVUc-BleYFiny-1">
          <mxGeometry relative="1" as="geometry" />
        </mxCell>
        <mxCell id="q2Ii8qjP3S2E4ouvrTp5-34" value="Start" style="rounded=1;whiteSpace=wrap;html=1;" parent="1" vertex="1">
          <mxGeometry x="67" y="20" width="66" height="33" as="geometry" />
        </mxCell>
        <mxCell id="q2Ii8qjP3S2E4ouvrTp5-49" value="End" style="rounded=1;whiteSpace=wrap;html=1;" parent="1" vertex="1">
          <mxGeometry x="484" y="20" width="66" height="33" as="geometry" />
        </mxCell>
        <mxCell id="jHbEwE0dVUc-BleYFiny-32" value="" style="edgeStyle=orthogonalEdgeStyle;rounded=0;orthogonalLoop=1;jettySize=auto;html=1;" edge="1" parent="1" source="jHbEwE0dVUc-BleYFiny-1" target="jHbEwE0dVUc-BleYFiny-31">
          <mxGeometry relative="1" as="geometry" />
        </mxCell>
        <mxCell id="jHbEwE0dVUc-BleYFiny-1" value="Check status dalam mesin basuh" style="rounded=0;whiteSpace=wrap;html=1;strokeWidth=1;" vertex="1" parent="1">
          <mxGeometry x="40" y="80" width="120" height="40" as="geometry" />
        </mxCell>
        <mxCell id="jHbEwE0dVUc-BleYFiny-77" value="" style="edgeStyle=none;rounded=0;orthogonalLoop=1;jettySize=auto;html=1;" edge="1" parent="1" source="jHbEwE0dVUc-BleYFiny-5" target="jHbEwE0dVUc-BleYFiny-73">
          <mxGeometry relative="1" as="geometry" />
        </mxCell>
        <mxCell id="jHbEwE0dVUc-BleYFiny-5" value="Basuh,&lt;br&gt;Timer 1 jam 30 minit&lt;br&gt;(notify bila selesai)" style="rounded=0;whiteSpace=wrap;html=1;strokeWidth=1;" vertex="1" parent="1">
          <mxGeometry x="30" y="280" width="140" height="60" as="geometry" />
        </mxCell>
        <mxCell id="jHbEwE0dVUc-BleYFiny-50" value="" style="edgeStyle=none;rounded=0;orthogonalLoop=1;jettySize=auto;html=1;" edge="1" parent="1" source="jHbEwE0dVUc-BleYFiny-9" target="jHbEwE0dVUc-BleYFiny-49">
          <mxGeometry relative="1" as="geometry" />
        </mxCell>
        <mxCell id="jHbEwE0dVUc-BleYFiny-9" value="Check status baju&lt;br&gt;di ampai" style="rounded=0;whiteSpace=wrap;html=1;strokeWidth=1;" vertex="1" parent="1">
          <mxGeometry x="430" y="170" width="110" height="40" as="geometry" />
        </mxCell>
        <mxCell id="jHbEwE0dVUc-BleYFiny-43" value="Yes" style="edgeStyle=none;rounded=0;orthogonalLoop=1;jettySize=auto;html=1;" edge="1" parent="1" source="jHbEwE0dVUc-BleYFiny-31" target="jHbEwE0dVUc-BleYFiny-5">
          <mxGeometry relative="1" as="geometry" />
        </mxCell>
        <mxCell id="jHbEwE0dVUc-BleYFiny-81" value="No" style="edgeStyle=none;rounded=0;orthogonalLoop=1;jettySize=auto;html=1;" edge="1" parent="1" source="jHbEwE0dVUc-BleYFiny-31" target="jHbEwE0dVUc-BleYFiny-34">
          <mxGeometry relative="1" as="geometry" />
        </mxCell>
        <mxCell id="jHbEwE0dVUc-BleYFiny-31" value="Ada Baju?" style="rhombus;whiteSpace=wrap;html=1;rounded=0;strokeWidth=1;" vertex="1" parent="1">
          <mxGeometry x="45" y="150" width="110" height="80" as="geometry" />
        </mxCell>
        <mxCell id="jHbEwE0dVUc-BleYFiny-63" value="" style="edgeStyle=none;rounded=0;orthogonalLoop=1;jettySize=auto;html=1;entryX=1;entryY=0.5;entryDx=0;entryDy=0;" edge="1" parent="1" source="jHbEwE0dVUc-BleYFiny-34" target="jHbEwE0dVUc-BleYFiny-1">
          <mxGeometry relative="1" as="geometry">
            <mxPoint x="265" y="80" as="targetPoint" />
          </mxGeometry>
        </mxCell>
        <mxCell id="jHbEwE0dVUc-BleYFiny-34" value="Mesin Kosong,&lt;br&gt;sedia untuk digunakan" style="whiteSpace=wrap;html=1;rounded=0;strokeWidth=1;" vertex="1" parent="1">
          <mxGeometry x="210" y="80" width="120" height="60" as="geometry" />
        </mxCell>
        <mxCell id="jHbEwE0dVUc-BleYFiny-48" value="" style="edgeStyle=none;rounded=0;orthogonalLoop=1;jettySize=auto;html=1;" edge="1" parent="1" source="jHbEwE0dVUc-BleYFiny-47" target="jHbEwE0dVUc-BleYFiny-9">
          <mxGeometry relative="1" as="geometry" />
        </mxCell>
        <mxCell id="jHbEwE0dVUc-BleYFiny-47" value="Sidai Baju di&amp;nbsp;Ampaian,&lt;br&gt;Timer 6 jam&lt;br&gt;(notify bila selesai)" style="rounded=0;whiteSpace=wrap;html=1;strokeWidth=1;" vertex="1" parent="1">
          <mxGeometry x="235" y="180" width="140" height="60" as="geometry" />
        </mxCell>
        <mxCell id="jHbEwE0dVUc-BleYFiny-52" value="Ya" style="edgeStyle=none;rounded=0;orthogonalLoop=1;jettySize=auto;html=1;" edge="1" parent="1" source="jHbEwE0dVUc-BleYFiny-49" target="jHbEwE0dVUc-BleYFiny-51">
          <mxGeometry relative="1" as="geometry" />
        </mxCell>
        <mxCell id="jHbEwE0dVUc-BleYFiny-55" value="Yes" style="edgeStyle=none;rounded=0;orthogonalLoop=1;jettySize=auto;html=1;" edge="1" parent="1" source="jHbEwE0dVUc-BleYFiny-49" target="jHbEwE0dVUc-BleYFiny-51">
          <mxGeometry relative="1" as="geometry" />
        </mxCell>
        <mxCell id="jHbEwE0dVUc-BleYFiny-58" value="" style="edgeStyle=none;rounded=0;orthogonalLoop=1;jettySize=auto;html=1;" edge="1" parent="1" source="jHbEwE0dVUc-BleYFiny-51" target="jHbEwE0dVUc-BleYFiny-57">
          <mxGeometry relative="1" as="geometry" />
        </mxCell>
        <mxCell id="jHbEwE0dVUc-BleYFiny-51" value="Angkat baju di ampai&lt;br&gt;(notify sedia untuk dilipat)" style="whiteSpace=wrap;html=1;rounded=0;strokeWidth=1;" vertex="1" parent="1">
          <mxGeometry x="642.5" y="90" width="150" height="50" as="geometry" />
        </mxCell>
        <mxCell id="jHbEwE0dVUc-BleYFiny-61" value="" style="edgeStyle=none;rounded=0;orthogonalLoop=1;jettySize=auto;html=1;" edge="1" parent="1" source="jHbEwE0dVUc-BleYFiny-53" target="jHbEwE0dVUc-BleYFiny-9">
          <mxGeometry relative="1" as="geometry" />
        </mxCell>
        <mxCell id="jHbEwE0dVUc-BleYFiny-53" value="Tunggu sehingga&lt;br&gt;kering" style="whiteSpace=wrap;html=1;rounded=0;strokeWidth=1;" vertex="1" parent="1">
          <mxGeometry x="440" y="280" width="90" height="50" as="geometry" />
        </mxCell>
        <mxCell id="jHbEwE0dVUc-BleYFiny-60" value="" style="edgeStyle=none;rounded=0;orthogonalLoop=1;jettySize=auto;html=1;" edge="1" parent="1" source="jHbEwE0dVUc-BleYFiny-57" target="q2Ii8qjP3S2E4ouvrTp5-49">
          <mxGeometry relative="1" as="geometry" />
        </mxCell>
        <mxCell id="jHbEwE0dVUc-BleYFiny-57" value="Baju selesai dilipat&lt;br&gt;(notify sedia untuk diangkat)" style="whiteSpace=wrap;html=1;rounded=0;strokeWidth=1;" vertex="1" parent="1">
          <mxGeometry x="630" y="13" width="175" height="40" as="geometry" />
        </mxCell>
        <mxCell id="jHbEwE0dVUc-BleYFiny-67" value="No" style="edgeStyle=none;rounded=0;orthogonalLoop=1;jettySize=auto;html=1;" edge="1" parent="1" source="jHbEwE0dVUc-BleYFiny-49" target="jHbEwE0dVUc-BleYFiny-66">
          <mxGeometry relative="1" as="geometry" />
        </mxCell>
        <mxCell id="jHbEwE0dVUc-BleYFiny-49" value="Baju kering?" style="rhombus;whiteSpace=wrap;html=1;rounded=0;strokeWidth=1;" vertex="1" parent="1">
          <mxGeometry x="662.5" y="180" width="110" height="80" as="geometry" />
        </mxCell>
        <mxCell id="jHbEwE0dVUc-BleYFiny-69" value="No" style="edgeStyle=none;rounded=0;orthogonalLoop=1;jettySize=auto;html=1;" edge="1" parent="1" source="jHbEwE0dVUc-BleYFiny-66" target="jHbEwE0dVUc-BleYFiny-53">
          <mxGeometry relative="1" as="geometry">
            <mxPoint x="587.5" y="370.52631578947364" as="targetPoint" />
          </mxGeometry>
        </mxCell>
        <mxCell id="jHbEwE0dVUc-BleYFiny-71" value="Yes" style="edgeStyle=none;rounded=0;orthogonalLoop=1;jettySize=auto;html=1;" edge="1" parent="1" source="jHbEwE0dVUc-BleYFiny-66" target="jHbEwE0dVUc-BleYFiny-70">
          <mxGeometry relative="1" as="geometry" />
        </mxCell>
        <mxCell id="jHbEwE0dVUc-BleYFiny-66" value="Sebab Hujan?" style="rhombus;whiteSpace=wrap;html=1;rounded=0;strokeWidth=1;" vertex="1" parent="1">
          <mxGeometry x="662.5" y="320" width="110" height="80" as="geometry" />
        </mxCell>
        <mxCell id="jHbEwE0dVUc-BleYFiny-72" value="" style="edgeStyle=none;rounded=0;orthogonalLoop=1;jettySize=auto;html=1;" edge="1" parent="1" source="jHbEwE0dVUc-BleYFiny-70" target="jHbEwE0dVUc-BleYFiny-53">
          <mxGeometry relative="1" as="geometry" />
        </mxCell>
        <mxCell id="jHbEwE0dVUc-BleYFiny-70" value="Tunggu Hujan Berhenti" style="whiteSpace=wrap;html=1;rounded=0;strokeWidth=1;" vertex="1" parent="1">
          <mxGeometry x="446.25" y="380" width="77.5" height="60" as="geometry" />
        </mxCell>
        <mxCell id="jHbEwE0dVUc-BleYFiny-75" value="" style="edgeStyle=none;rounded=0;orthogonalLoop=1;jettySize=auto;html=1;" edge="1" parent="1" source="jHbEwE0dVUc-BleYFiny-73" target="jHbEwE0dVUc-BleYFiny-74">
          <mxGeometry relative="1" as="geometry" />
        </mxCell>
        <mxCell id="jHbEwE0dVUc-BleYFiny-73" value="Check status cuaca" style="rounded=0;whiteSpace=wrap;html=1;strokeWidth=1;" vertex="1" parent="1">
          <mxGeometry x="45" y="380" width="100" height="40" as="geometry" />
        </mxCell>
        <mxCell id="jHbEwE0dVUc-BleYFiny-76" value="No" style="edgeStyle=none;rounded=0;orthogonalLoop=1;jettySize=auto;html=1;" edge="1" parent="1" source="jHbEwE0dVUc-BleYFiny-74" target="jHbEwE0dVUc-BleYFiny-47">
          <mxGeometry relative="1" as="geometry" />
        </mxCell>
        <mxCell id="jHbEwE0dVUc-BleYFiny-79" value="Yes" style="edgeStyle=none;rounded=0;orthogonalLoop=1;jettySize=auto;html=1;" edge="1" parent="1" source="jHbEwE0dVUc-BleYFiny-74" target="jHbEwE0dVUc-BleYFiny-78">
          <mxGeometry relative="1" as="geometry" />
        </mxCell>
        <mxCell id="jHbEwE0dVUc-BleYFiny-74" value="Hujan?" style="rhombus;whiteSpace=wrap;html=1;rounded=0;strokeWidth=1;" vertex="1" parent="1">
          <mxGeometry x="200" y="270" width="80" height="80" as="geometry" />
        </mxCell>
        <mxCell id="jHbEwE0dVUc-BleYFiny-80" value="" style="edgeStyle=none;rounded=0;orthogonalLoop=1;jettySize=auto;html=1;" edge="1" parent="1" source="jHbEwE0dVUc-BleYFiny-78" target="jHbEwE0dVUc-BleYFiny-73">
          <mxGeometry relative="1" as="geometry" />
        </mxCell>
        <mxCell id="jHbEwE0dVUc-BleYFiny-78" value="Tunggu Hujan Berhenti" style="whiteSpace=wrap;html=1;rounded=0;strokeWidth=1;" vertex="1" parent="1">
          <mxGeometry x="270" y="380" width="105" height="40" as="geometry" />
        </mxCell>
      </root>
    </mxGraphModel>
  </diagram>
</mxfile>
